<?xml version="1.0" standalone="no"?>
<!DOCTYPE svg PUBLIC "-//W3C//DTD SVG 20010904//EN"
 "http://www.w3.org/TR/2001/REC-SVG-20010904/DTD/svg10.dtd">
<svg version="1.0" xmlns="http://www.w3.org/2000/svg"
 width="265.000000pt" height="265.000000pt" viewBox="0 0 265.000000 265.000000"
 preserveAspectRatio="xMidYMid meet">
<metadata>
Created by potrace 1.11, written by Peter Selinger 2001-2013
</metadata>
<g transform="translate(0.000000,265.000000) scale(0.100000,-0.100000)"
fill="#000000" stroke="none">
<path d="M1275 2643 c-352 -16 -666 -158 -905 -409 -419 -439 -481 -1129 -146
-1632 191 -286 464 -479 792 -558 330 -79 703 -23 989 149 299 181 523 491
604 835 171 728 -316 1466 -1054 1597 -57 10 -221 20 -280 18z m240 -408 c35
-34 34 -93 -1 -129 l-27 -26 -298 0 -299 0 0 -166 c0 -154 1 -166 18 -159 75
30 209 68 290 81 290 50 484 -45 555 -271 17 -55 22 -95 21 -185 0 -128 -15
-196 -66 -292 -19 -36 -27 -61 -21 -70 4 -8 49 -67 98 -131 l90 -117 5 272 c5
283 9 306 50 328 35 19 85 12 111 -16 l24 -26 3 -433 3 -433 -26 -30 c-13 -16
-36 -32 -49 -34 -53 -10 -80 15 -266 258 -100 132 -186 243 -191 248 -5 5 -36
0 -75 -13 -36 -12 -93 -24 -125 -28 l-59 -6 0 -198 0 -199 -27 -30 c-47 -52
-136 -34 -154 31 -4 13 -7 111 -8 217 l-1 192 -29 0 c-35 0 -242 51 -293 73
-72 30 -69 -5 -66 666 l3 603 28 24 28 24 365 0 365 0 24 -25z m498 -607 c33
-17 46 -39 47 -76 1 -87 -117 -113 -158 -35 -19 35 -14 63 17 94 31 31 59 36
94 17z"/>
<path d="M1230 1653 c-57 -10 -180 -46 -257 -76 l-83 -32 0 -222 0 -222 38
-10 c20 -6 65 -17 99 -25 l62 -14 3 243 c3 229 4 245 24 272 33 43 93 50 131
13 10 -9 81 -99 157 -199 77 -99 143 -181 147 -181 19 0 34 82 34 185 0 95 -4
117 -23 157 -28 57 -69 93 -120 108 -36 10 -161 12 -212 3z"/>
<path d="M1280 1137 l0 -94 54 8 c30 4 60 10 66 14 6 4 -14 38 -51 86 -34 43
-63 79 -65 79 -2 0 -4 -42 -4 -93z"/>
</g>
</svg>
